<mxfile host="app.diagrams.net" modified="2023-10-30T19:48:42.922Z" agent="Mozilla/5.0 (X11; Ubuntu; Linux x86_64; rv:109.0) Gecko/20100101 Firefox/118.0" version="22.0.8" etag="ahTbs1bWmQoe_GyqF8kj" type="github">
  <diagram name="Page-1" id="H9A18gkoC2Fcs-PtQ5p-">
    <mxGraphModel>
      <root>
        <mxCell id="0" />
        <mxCell id="1" parent="0" />
      </root>
    </mxGraphModel>
  </diagram>
</mxfile>
